<svg xmlns="http://www.w3.org/2000/svg" viewBox="0 0 55.28 55.28"><rect width="55.28" height="55.28" fill="#094183"/><path d="M6.16,36.74s-.09.39-.09.43,0,.07,0,.07a.06.06,0,0,0,.06-.06l.07-.12c.06-.08.14-.1.38-.11h.56V38.6c0,.37,0,.69,0,.86s0,.18-.09.19H7a.06.06,0,0,0-.06.06c0,.06.07.06.1.06h.88c.08,0,.09,0,.09-.06a.06.06,0,0,0-.06-.06H7.73c-.09,0-.12-.08-.13-.19s0-.49,0-.86V36.94h.47c.39,0,.45.1.46.19v0s0,.09.06.09.06,0,.06-.08v-.44s0-.08-.05-.08h0a1.68,1.68,0,0,1-.34,0H6.71l-.31,0-.12,0,0,0S6.17,36.7,6.16,36.74Z" fill="#fff"/><path d="M11.52,36.72H11s-.09,0-.09.06a.06.06,0,0,0,.06.06h.13c.11,0,.14.06.15.2V38H9.57V37c0-.14,0-.19.12-.2h.1a.06.06,0,0,0,.06-.06s0-.06-.1-.06H8.93q-.09,0-.09.06a.06.06,0,0,0,.06.06H9c.11,0,.14.06.15.2v1.55c0,.38,0,.7,0,.86s0,.18-.09.2H9a.06.06,0,0,0-.06.05c0,.07.07.07.09.07h.88c.09,0,.1-.05.1-.07a.06.06,0,0,0-.06-.05H9.73c-.09,0-.12-.08-.13-.2s0-.48,0-.86v-.41h1.68v.41c0,.38,0,.7,0,.86s0,.18-.09.2H11a.06.06,0,0,0-.06.06c0,.06.07.06.09.06h.88c.09,0,.1-.05.1-.06s0-.06-.07-.06H11.8c-.1,0-.12-.08-.13-.2s0-.48,0-.86V37c0-.14,0-.19.12-.2h.09a.07.07,0,0,0,.07-.06c0-.06-.07-.06-.1-.06Z" fill="#fff"/><path d="M14.06,36.69h0l-.17,0H12.51s-.09,0-.09.06a.05.05,0,0,0,.06.06h.13c.11,0,.14.07.15.2V38.6a6.24,6.24,0,0,1,0,.85c0,.12,0,.19-.09.2h-.11a.06.06,0,0,0-.06.06c0,.06.07.06.09.06h.54l.84,0c.15,0,.21,0,.24-.13a3.47,3.47,0,0,0,.05-.39s0-.09-.05-.09-.06.06-.07.09-.07.22-.16.26a1.17,1.17,0,0,1-.37,0c-.38,0-.42,0-.43-.3v-1l.56,0c.14,0,.17.06.18.11l0,.13a.05.05,0,0,0,.06.06c.06,0,.06-.07.06-.1v-.25l0-.23c0-.06,0-.06-.05-.06L14,38s-.07,0-.16,0h-.63v-1.1h.54c.21,0,.23.07.25.12l0,.13c0,.07,0,.08.06.08s0,0,.06-.07v-.27l0-.13v0c0-.07,0-.07-.05-.07Z" fill="#fff"/><path d="M18.59,36.72H18.1s-.09,0-.09.06a.06.06,0,0,0,.06.06h.13c.12,0,.14.07.15.2v1.35a1.48,1.48,0,0,1-.22,1,.79.79,0,0,1-.6.27.73.73,0,0,1-.58-.21,1.2,1.2,0,0,1-.29-1V37c0-.14,0-.19.12-.2h.1a.06.06,0,0,0,.06-.06c0-.06-.07-.06-.1-.06H16s-.09,0-.09.06a.06.06,0,0,0,.06.06h.13c.11,0,.14.06.15.2v1.43a1.31,1.31,0,0,0,.36,1.07,1.34,1.34,0,0,0,1.68,0,1.59,1.59,0,0,0,.38-1.21V37c0-.14,0-.19.13-.2h.09a.06.06,0,0,0,.06-.06c0-.06-.07-.06-.09-.06Z" fill="#fff"/><path d="M19.66,36.88v2.28c0,.36,0,.46-.09.48l-.16,0a.06.06,0,0,0-.06.06c0,.06.07.06.09.06h.81s.1,0,.1-.06a.06.06,0,0,0-.06-.06l-.19,0c-.09,0-.13-.1-.14-.43,0,0,0-1.68-.05-1.83l1,1.08c.43.47,1,1,1,1.08.22.23.26.27.31.27s.06-.05.06-.32V37.16c0-.24,0-.3.12-.32h.09c.06,0,.08,0,.08-.06s-.07-.06-.1-.06h-.75s-.11,0-.11.06a.05.05,0,0,0,.06.06l.19,0c.09,0,.12.08.13.35,0,0,0,1.56,0,1.94l-.3-.32-.6-.66-1.3-1.4c-.06-.07-.09-.1-.13-.1S19.66,36.75,19.66,36.88Z" fill="#fff"/><path d="M23.73,36.72h-.46s-.1,0-.1.06a.07.07,0,0,0,.07.06h.11c.06,0,.11,0,.12.2v1.55c0,.38,0,.7,0,.86s0,.18-.09.2h-.11a.06.06,0,0,0-.06.05c0,.07.07.07.09.07h.88c.08,0,.09-.05.09-.07s0-.05-.06-.05H24c-.1,0-.12-.08-.13-.2s0-.48,0-.86V37c0-.14,0-.19.12-.2h.09a.07.07,0,0,0,.07-.06c0-.06-.07-.06-.1-.06Z" fill="#fff"/><path d="M27.29,36.72h-.45s-.11,0-.11.06,0,.06.07.06h.14a.07.07,0,0,1,0,.06l0,.15c-.08.26-.57,1.55-.82,2.13l-.74-2a1.42,1.42,0,0,1-.1-.32h0a.06.06,0,0,1,0-.06h.14c.06,0,.07,0,.07-.06s-.09-.06-.14-.06h-.83c-.06,0-.14,0-.14.06a.07.07,0,0,0,.07.06h.14c.12,0,.18.07.27.29l1,2.46c.07.19.09.25.16.25s.07,0,.13-.18l.07-.15.49-1.15.23-.57.24-.56c.1-.26.16-.33.2-.36a.37.37,0,0,1,.18,0c.07,0,.08,0,.08-.06s0-.06-.1-.06Z" fill="#fff"/><path d="M29.46,36.69h0l-.17,0H27.92s-.09,0-.09.06a.05.05,0,0,0,.06.06H28c.11,0,.14.07.15.2V38.6c0,.37,0,.69,0,.85s0,.19-.09.2H28a.06.06,0,0,0-.06.06c0,.06.07.06.09.06h.54l.83,0c.16,0,.21,0,.25-.13a3.47,3.47,0,0,0,0-.39s0-.09,0-.09-.06,0-.07.08-.07.23-.16.27a1.17,1.17,0,0,1-.37,0c-.39,0-.42,0-.43-.3v-1l.56,0c.15,0,.17.08.18.11v.13a.06.06,0,0,0,.06.06c.06,0,.06-.07.06-.1l0-.26,0-.22c0-.06,0-.06,0-.06l-.07,0a.23.23,0,0,1-.18.05h-.63v-1.1h.53c.22,0,.24.07.26.11l0,.14c0,.07.05.08.06.08s0,0,.06-.07l0-.19v-.08l0-.19c0-.06,0-.06,0-.06Z" fill="#fff"/><path d="M30.91,38.26s0,0,0,0v-1.3s0,0,0,0a1.18,1.18,0,0,1,.26,0c.41,0,.66.29.66.77a.69.69,0,0,1-.23.58.45.45,0,0,1-.29.07A1.07,1.07,0,0,1,30.91,38.26Zm-.06-1.54h-.58s-.09,0-.09.06a.06.06,0,0,0,.06.06h.13c.11,0,.14.06.14.2v1.55c0,.38,0,.7,0,.86s0,.18-.09.2H30.3a.06.06,0,0,0-.06.06c0,.06.07.06.09.06h.86c.09,0,.1-.05.1-.06s0-.06-.07-.06h-.17c-.09,0-.12-.08-.13-.2s0-.48,0-.86V38.5h.49l0,0,.14.19.29.39,0,.07a1.72,1.72,0,0,0,.5.53.82.82,0,0,0,.44.08h.28c.05,0,.13,0,.13-.07s0-.05-.07-.05H33a.8.8,0,0,1-.47-.28,11,11,0,0,1-.73-.9l-.08-.09a1.27,1.27,0,0,0,.47-.92.75.75,0,0,0-.28-.57,1.25,1.25,0,0,0-.75-.18Z" fill="#fff"/><path d="M33.42,37.4c0,.27.09.53.53.89l.18.14c.35.29.45.44.45.7a.51.51,0,0,1-.54.5.52.52,0,0,1-.56-.39V39.1s0-.07-.06-.07-.06.06-.06.09v.42c0,.11,0,.15.07.18h0a1.2,1.2,0,0,0,.55.11,1.1,1.1,0,0,0,.62-.17.84.84,0,0,0,.35-.68c0-.32-.1-.57-.6-1l-.11-.09c-.38-.31-.47-.44-.47-.65a.42.42,0,0,1,.46-.43c.33,0,.44.14.47.2a1.05,1.05,0,0,1,0,.19s0,.07.06.07.06-.07.06-.12v-.42c0-.06-.05-.06-.07-.06l-.13,0a2,2,0,0,0-.38,0A.77.77,0,0,0,33.42,37.4Z" fill="#fff"/><path d="M36.09,36.72h-.47q-.09,0-.09.06a.06.06,0,0,0,.06.06h.12s.1,0,.11.2v1.55c0,.38,0,.7,0,.86s0,.18-.1.2H35.6a.06.06,0,0,0-.06.05c0,.07.07.07.09.07h.88c.09,0,.1-.05.1-.07s0-.05-.07-.05h-.17c-.09,0-.12-.08-.13-.2s0-.48,0-.86V37c0-.14,0-.19.12-.2h.09a.07.07,0,0,0,.07-.06c0-.06-.07-.06-.1-.06Z" fill="#fff"/><path d="M37,36.75s-.09.38-.09.42,0,.07,0,.07a.07.07,0,0,0,.07-.06l.06-.12c.06-.08.14-.1.38-.11H38V38.6c0,.37,0,.69,0,.85s0,.19-.09.2h-.12a.06.06,0,0,0-.06.06c0,.06.07.06.1.06h.88c.08,0,.09,0,.09-.06a.06.06,0,0,0-.06-.06h-.18c-.09,0-.11-.08-.13-.19s0-.49,0-.86V36.94h.47c.39,0,.45.1.46.19v0s0,.09.06.09.06,0,.06-.08v-.44s0-.08,0-.08h-.05a1.68,1.68,0,0,1-.34,0H37.54l-.32,0-.12,0h-.05S37,36.7,37,36.75Z" fill="#fff"/><path d="M42.15,36.72h-.37c-.08,0-.09,0-.09.06s0,0,.08.06,0,0,0,.09a.35.35,0,0,1-.06.18c-.07.12-.51.88-.64,1.13L40.41,37a.34.34,0,0,1,0-.14.05.05,0,0,1,0-.05h0s0,0,0,0,0-.06-.08-.06h-.73c-.08,0-.08,0-.08.06a.07.07,0,0,0,.07.06.29.29,0,0,1,.15.06,1.21,1.21,0,0,1,.27.28c.14.21.67,1.09.69,1.14a.76.76,0,0,1,.09.41v.74c0,.08,0,.17-.1.19h-.11a.06.06,0,0,0-.06.06c0,.06.07.06.09.06h.88c.09,0,.09,0,.09-.06a.05.05,0,0,0-.06-.06H41.4c-.09,0-.13-.07-.14-.19v-.74a.84.84,0,0,1,.06-.38,11,11,0,0,1,.75-1.26.93.93,0,0,1,.2-.2.45.45,0,0,1,.17-.05c.06,0,.08,0,.08-.06s0-.06-.08-.06Z" fill="#fff"/><path d="M44.29,38.13a1.13,1.13,0,0,1,1.13-1.28c.57,0,1.18.45,1.18,1.44,0,1.27-.89,1.33-1.07,1.33A1.32,1.32,0,0,1,44.29,38.13Zm-.44.11a1.53,1.53,0,0,0,1.58,1.6,1.59,1.59,0,0,0,1.62-1.66,1.48,1.48,0,0,0-1.6-1.52A1.56,1.56,0,0,0,43.85,38.24Z" fill="#fff"/><path d="M49.11,36.69l0,0H47.5s-.1,0-.1.06a.07.07,0,0,0,.07.06h.12c.11,0,.14.06.15.2v1.55c0,.38,0,.7,0,.86s0,.18-.09.2h-.12a.06.06,0,0,0-.06.06c0,.06.07.06.1.06h.88c.08,0,.09-.05.09-.06a.06.06,0,0,0-.06-.06h-.18c-.09,0-.11-.08-.13-.2s0-.48,0-.85v-.34h.6a.24.24,0,0,1,.18.13l0,.11v0a.07.07,0,0,0,.06.07c.06,0,.06-.07.06-.11v-.26l0-.23c0-.06,0-.06,0-.06A.07.07,0,0,0,49,38c0,.05-.07.06-.17.07h-.69V36.94h.62a.32.32,0,0,1,.25.11l0,.14c0,.08.05.08.06.08s0,0,.06-.07v-.27l0-.13v0s0-.07-.06-.07Z" fill="#fff"/><rect x="6.56" y="42.08" width="42.43" height="0.24" fill="#fff"/><path d="M10.83,44.63s-1.52,3.19-1.65,3.48c0,0-1.67-3.43-1.67-3.43-.07-.16-.11-.2-.18-.2s-.09,0-.12.17l-.6,4c0,.23-.09.44-.24.48l-.18,0s-.12,0-.12.05.09.09.13.09l.38,0H7l.45,0c.08,0,.16,0,.16-.09s0-.05-.1-.05l-.26,0c-.12,0-.17-.08-.17-.18l0-.28.31-2.42c0,.08.3.61.3.61l.34.73c.07.17.55,1.09.71,1.39v0c.1.17.15.28.21.28s.1-.06.25-.35l1.33-2.79h0s.37,2.69.37,2.69a.76.76,0,0,1,0,.14c0,.07,0,.11,0,.11s-.08,0-.08.08h0c0,.06.07.08.19.09l1.25,0c.11,0,.18,0,.18-.08s-.08-.06-.12-.06a1,1,0,0,1-.37-.06c-.18,0-.24-.24-.29-.61l-.56-3.79c0-.14-.06-.21-.13-.21S10.88,44.54,10.83,44.63Z" fill="#fff"/><path d="M15.64,44.58h0l-.26,0H12.92c-.07,0-.15,0-.15.07s.08.07.12.07l.24,0c.2,0,.24.14.25.34s0,.36,0,1.3v1.08c0,.56,0,1,0,1.31s-.06.3-.16.32l-.22,0c-.05,0-.11,0-.11.06s0,.08.13.08l.43,0h.35l.64,0h1.06c.24,0,.3,0,.34-.17a3.72,3.72,0,0,0,.09-.68c0-.07,0-.13-.07-.13s-.07,0-.08.11c0,.25-.12.37-.27.44a1.62,1.62,0,0,1-.57.07c-.64,0-.71-.1-.72-.5V47s0,0,0,0,.75,0,.87,0,.3.09.33.22l0,.17v.05s0,.07.07.07.07-.08.07-.13V47l0-.38V46.5a.05.05,0,0,0-.06-.06s-.06,0-.1.07a.39.39,0,0,1-.29.1h-1s0,0,0,0V45s0,0,0,0l.87,0c.3,0,.36.11.39.21a.59.59,0,0,1,0,.22s0,.1.07.1.07-.06.08-.08l0-.28V45l0-.34v-.06s0-.07,0-.07Z" fill="#fff"/><path d="M18,44.62H16.84c-.07,0-.15,0-.15.07s.08.07.12.07l.2,0c.2,0,.24.14.25.34s0,.36,0,1.3v1.08c0,.56,0,1,0,1.31s-.06.3-.16.32l-.22,0c-.05,0-.11,0-.11.06s.1.07.13.07h.78l1,0h.83c.32,0,.36,0,.4-.17a4.71,4.71,0,0,0,.09-.71c0-.06,0-.12-.06-.12s-.08.07-.09.1a.69.69,0,0,1-.15.36c-.15.16-.37.17-.71.17s-.64,0-.73-.13-.13-.54-.13-1.31V46.41c0-.94,0-1.11,0-1.3s.07-.31.22-.34l.24,0c.06,0,.12,0,.12-.07s-.07-.07-.14-.07Z" fill="#fff"/><path d="M21.8,44.62H20.52c-.07,0-.15,0-.15.07s.08.07.12.07l.24,0c.2,0,.24.14.25.34s0,.36,0,1.3v1.08c0,.56,0,1,0,1.31s-.05.3-.16.32l-.22,0s-.12,0-.12.06.11.07.14.07h1.24l.24,0h.19c1.14,0,1.65-.68,1.65-1.35a1.49,1.49,0,0,0-1.1-1.33,1.35,1.35,0,0,0,.61-1.07c0-.22-.09-.94-1.32-.94Zm.2.27c.55,0,.75.58.75.94a.79.79,0,0,1-.24.64.66.66,0,0,1-.44.11l-.28,0s0,0,0-.05V45c0-.06,0-.08,0-.09Zm0,4c-.19-.07-.2-.16-.2-.57V46.89s0,0,0,0H22a.85.85,0,0,1,.5.14h0a1.46,1.46,0,0,1,.59,1.21.7.7,0,0,1-.73.78A1.08,1.08,0,0,1,22,48.92Z" fill="#fff"/><path d="M24.54,47A2.35,2.35,0,0,0,27,49.37a2.43,2.43,0,0,0,2.56-2.53,2.23,2.23,0,0,0-2.5-2.31A2.38,2.38,0,0,0,24.54,47Zm.88-.19c0-1.66.93-1.91,1.49-1.91,1.06,0,1.79.91,1.79,2.22,0,1.77-1,2-1.41,2C26.19,49,25.42,48.1,25.42,46.76Z" fill="#fff"/><path d="M34.3,44.62h-.18l-.7,0c-.07,0-.15,0-.15.07s.09.07.12.07l.22,0c.2,0,.24.14.25.34s0,.36,0,1.3v.77a2.07,2.07,0,0,1-.36,1.51,1.17,1.17,0,0,1-.83.33,1.13,1.13,0,0,1-.76-.25c-.25-.2-.48-.52-.48-1.5v-.86c0-.94,0-1.1,0-1.3s.06-.31.21-.34h.18s.11,0,.11-.07-.08-.07-.15-.07H30.17c-.08,0-.15,0-.15.07s.08.07.12.07h.23c.2,0,.24.15.26.34s0,.37,0,1.3v.9A2.06,2.06,0,0,0,31.19,49a2,2,0,0,0,1.37.43,1.84,1.84,0,0,0,1.29-.45,2.32,2.32,0,0,0,.59-1.86v-.66c0-.93,0-1.1,0-1.3s.07-.31.22-.33l.17,0c.07,0,.13,0,.13-.07s-.08-.07-.15-.07Z" fill="#fff"/><path d="M37,44.62H35.67c-.08,0-.16,0-.16.07s.09.07.12.07l.24,0c.2,0,.24.14.25.34s0,.36,0,1.3v1.08c0,.56,0,1,0,1.31s-.05.3-.16.32l-.22,0s-.11,0-.11.07.1.07.14.07H37.4s.13,0,.13-.07,0-.07-.08-.07l-.3,0c-.17,0-.21-.13-.23-.32s0-.75,0-1.32V47.4s0,0,0,0h.54a.13.13,0,0,1,.1,0l.29.41.31.44a3,3,0,0,0,.85.91,1.29,1.29,0,0,0,.67.12h.58s.13,0,.13-.08,0-.06-.09-.06l-.17,0a1.24,1.24,0,0,1-.68-.42c-.31-.32-.66-.77-1.11-1.34l-.21-.26a1.75,1.75,0,0,0,.81-1.37,1.08,1.08,0,0,0-.43-.86,2,2,0,0,0-1.14-.27Zm0,2.37s0,0,0-.1V45c0-.05,0-.07,0-.08a1.81,1.81,0,0,1,.32,0c.34,0,.92.23.92,1.11a1.07,1.07,0,0,1-.35.91.66.66,0,0,1-.43.1A1.47,1.47,0,0,1,36.94,47Z" fill="#fff"/><path d="M41.13,44.73l-.06,3.64c0,.53,0,.7-.18.75a1.48,1.48,0,0,1-.27,0s-.11,0-.11.06.08.08.15.08l.56,0h.86c.05,0,.16,0,.16-.07s-.09-.06-.12-.06a1,1,0,0,1-.32,0c-.13,0-.19-.24-.2-.66,0,0-.07-2.5-.07-2.56a1.53,1.53,0,0,1,.13.13c.25.29.79.88,1.33,1.41l.81.81,1,1c.07.07.14.14.22.14s.09-.1.09-.2l.07-3.88c0-.34.06-.46.22-.51l.18,0c.08,0,.12,0,.12-.07s-.09-.07-.15-.07l-.49,0H44.2c-.07,0-.18,0-.18.07s.07.07.12.07a1.19,1.19,0,0,1,.32,0c.13.06.19.15.2.54,0,0,.06,2.58.06,2.74h0l-.43-.45-.91-.94c-.93-.93-1.89-2-1.9-2l-.06-.07c-.07-.08-.12-.13-.18-.13S41.13,44.64,41.13,44.73Z" fill="#fff"/><path d="M48.84,44.58h0l-.26,0H46.12c-.07,0-.15,0-.15.07s.08.07.12.07l.23,0c.2,0,.24.14.25.34s0,.36,0,1.3v1.08c0,.56,0,1,0,1.31s-.05.3-.17.32l-.22,0c-.05,0-.11,0-.11.07s.1.07.14.07h2.47c.23,0,.3,0,.35-.17a4.87,4.87,0,0,0,.08-.68c0-.07,0-.13-.07-.13s-.07,0-.08.1c0,.26-.11.38-.27.45a1.57,1.57,0,0,1-.57.07c-.63,0-.71-.1-.72-.5V47s0,0,0,0h.87c.2,0,.3.1.33.23l0,.17v.05s0,.07.07.07.07-.08.07-.13V47l0-.39V46.5s0-.07-.06-.07-.06,0-.1.08-.15.08-.29.1h-1s0,0,0-.06V45s0,0,0,0l.87,0c.31,0,.36.11.4.21a.73.73,0,0,1,0,.22s0,.1.07.1a.08.08,0,0,0,.08-.08l0-.28V45l0-.34v-.06c0-.05,0-.07-.05-.07Z" fill="#fff"/><path d="M27.6,33.3a10.63,10.63,0,0,0-3.52-2.1l-.1,0-.65-.24-.16-.06-.11-.05h0A9.43,9.43,0,0,1,16.47,22c0-.17,0-.35,0-.53a18.81,18.81,0,0,1,.11-2c.05-.39.18-1.32.18-1.34L17.11,16c0-.22.05-.33.06-.38l0-.13h0c0-.3,0-.66,0-1a3.37,3.37,0,0,0-1.19-3h0l-.11-.11L17.7,9.07,17.65,9a1.13,1.13,0,0,1-.24-.57l0-.27.25.09.49.16.07,0L20,6.11l.08.14a1.92,1.92,0,0,0,1.82.83,7.06,7.06,0,0,0,1.32-.14L25,6.67l1.49-.17.11,0c.34,0,.71-.05,1.1-.05a16.85,16.85,0,0,1,2.47.2l1.26.18,1.55.26c.23,0,.48,0,.75,0a2.07,2.07,0,0,0,1.52-.48,1.43,1.43,0,0,0,.2-.23l.17-.21,1.64,2.15.08,0,1.09-.4.32-.12a12,12,0,0,1,1.49-.45l.32-.07-.13.3a3.38,3.38,0,0,1-.32.61l-.19.3.33-.14.44-.17-.21.4a4.5,4.5,0,0,1-.95,1.19l-.08.06.06.09h0a.6.6,0,0,1,.06.29.78.78,0,0,1,0,.28,1.47,1.47,0,0,1-.25.36l-.07.06.44.58-.08.07a3.45,3.45,0,0,0-1.26,3v.27a7.64,7.64,0,0,0,.07,1l.21,1.35c.15.9.23,1.36.23,1.38,0,.4.15,1.43.16,1.5.05,1.28.06,1.4.06,1.4v.16a9.41,9.41,0,0,1-2,5.91l0,0a9.53,9.53,0,0,1-4.79,3.29,12.8,12.8,0,0,0-4.37,2.31h0l0,0,0,0-.09.11Z" fill="#fff"/><path d="M39.15,11.28a.13.13,0,0,0-.06,0A.13.13,0,0,1,39.15,11.28Zm0,0Zm1-3a4.4,4.4,0,0,0,.32-.62l.22-.5-.53.11a11.92,11.92,0,0,0-1.51.46l-.32.12-1.09.4L35.6,6l-.27.33a1.24,1.24,0,0,1-.19.21A2,2,0,0,1,33.7,7c-.26,0-.52,0-.73,0l-1.55-.26-1.26-.18a17.11,17.11,0,0,0-2.49-.2,9.59,9.59,0,0,0-1.23.07h0L25,6.55l-1.77.27a7,7,0,0,1-1.3.14,1.8,1.8,0,0,1-1.72-.78L20,5.9,18.16,8.29l-.49-.15L17.26,8l0,.44a1.17,1.17,0,0,0,.26.63l-1.8,2.34.18.18h0a3.25,3.25,0,0,1,1.15,2.9c0,.4,0,.8-.05,1.11h0L17,16l-.35,2.12s-.12.89-.18,1.34a19,19,0,0,0-.11,2c0,.18,0,.36,0,.53a9.54,9.54,0,0,0,6.76,9h0l.17.07.65.24.09,0a10.48,10.48,0,0,1,3.49,2.07l.16.16.17-.18,0-.05,0,0A12.9,12.9,0,0,1,32.27,31a9.52,9.52,0,0,0,4.84-3.33l0,0a9.52,9.52,0,0,0,2-6v-.17l-.06-1.4s-.1-1-.16-1.51l-.23-1.39-.21-1.34a7.39,7.39,0,0,1-.07-1,1.62,1.62,0,0,1,0-.22v-.05a3.37,3.37,0,0,1,1.21-2.9l.18-.13-.45-.59a1.38,1.38,0,0,0,.26-.39.79.79,0,0,0,0-.67v0a4.42,4.42,0,0,0,1-1.23l.35-.67ZM18.55,8.4,20,6.55a2.45,2.45,0,0,0,2.15.8l.54-.06L25,6.93l1.56-.18A17.78,17.78,0,0,1,31,7l2.07.34a2.83,2.83,0,0,0,2.41-.61l.11-.13,1.32,1.74h0l-.13.05-.54.21-.07,0h0l-.67-.89a4.31,4.31,0,0,1-2.4.4L31.87,8l-1.49-.24-1.59-.19a14.34,14.34,0,0,0-2.86.07l-1.32.18-2.19.33a4.1,4.1,0,0,1-2.35-.41l-.68.89-.27-.05Zm16.68,4.11c0,.22-.27.26-.35.44l-.12.08a.39.39,0,0,0,.28-.16c.18,0,.72-.17.75-.06s0,.2-.19.32a1.94,1.94,0,0,1-1.16.29,4,4,0,0,0-.69.11l-1.14.34a2.63,2.63,0,0,1-1.28.05,8.29,8.29,0,0,0-1.93-.24.29.29,0,0,0-.23.15.43.43,0,0,1,.25,0c0,.09,0,.57-.21.75a.74.74,0,0,1-.1-.22c0-.08-.3-1.29.23-1.67a1.26,1.26,0,0,1,.84.14c.41.22,1.11.34,1.65.55.23,0,.46-.1.71-.13L34.17,13c.29.06.34-.32.59-.34s.28-.12.41-.2A0,0,0,0,1,35.23,12.51Zm-13.49.74a.77.77,0,0,1,.48-.08,2.08,2.08,0,0,1,.86.32c.56.19,1,.58,1.58.75,0-.05-.06-.09-.09-.12a5.74,5.74,0,0,1,1.12-.69,1.2,1.2,0,0,1,1-.54h.1V13a2.87,2.87,0,0,1-.25.73A4.44,4.44,0,0,0,26,14l-1.33.79c-.34.27-.51,0-.87-.27a5.58,5.58,0,0,1-1.19-.76c0-.05.11,0,.06-.08a2.55,2.55,0,0,0-.54.15c-.07,0-.26.1-.32,0l.08,0c.12-.08.16-.23.34-.28a1,1,0,0,0-.59-.18Zm15.14.1c0,.1-.19.34-.45.4a1.06,1.06,0,0,1-.77-.11c0,.22.38.31.65.26a1.3,1.3,0,0,1-1,.34,1.89,1.89,0,0,1-.93-.32c0,.21.38.4.67.42a1.74,1.74,0,0,1-1.31.07,1.52,1.52,0,0,1-.52-.27c0,.17.22.3.42.35a.87.87,0,0,1-1.06-.34c.63-.18,1.11-.35,1.75-.51a1.66,1.66,0,0,0,1.43-.42A.75.75,0,0,0,36,13a.35.35,0,0,1,.2,0C36.21,13,36.82,13.12,36.88,13.35Zm-5.23.91a2.34,2.34,0,0,0,.85-.07c.07.12-.07.32-.18.28,0,.16.2.38.17.57l-.58-.22a1.09,1.09,0,0,1,.21.7c-.18-.13-.55-.14-.69-.25.07.26.24.64,0,.89a4.53,4.53,0,0,1-.5-.57,1.25,1.25,0,0,1-.08.87c-.11-.14-.59-.32-.58-.49-.05,0-.17.51-.33.61a4.44,4.44,0,0,0-.52-.73c.06-.07.14,0,.11-.15s-.29-.24-.54-.34a.88.88,0,0,1,.14-.23,3.39,3.39,0,0,0,.38-.7,1.94,1.94,0,0,0,.13-.48c.26,0,.43.08.75.11S31.22,14.21,31.65,14.26Zm-5.4-.09a.66.66,0,0,0-.17.24.68.68,0,0,0,.24.76.86.86,0,0,0,.35.17,1.15,1.15,0,0,0-.68.79.67.67,0,0,1-.12-.55.72.72,0,0,1-.4.23.61.61,0,0,1,.1-.51c-.05-.08-.33,0-.45,0a.37.37,0,0,1,.2-.4c-.05-.09-.15,0-.38,0a4.24,4.24,0,0,0,.6-.35Zm.15,6.67c.34.56.37.58.56.9s1,1.52,1.12,1.76a6.64,6.64,0,0,0,1.47,1.87c-.4.44-.21,1-.86,1.08-.38.06-1.45.39-1.82-.23a4,4,0,0,1-.43-2.38A3.54,3.54,0,0,0,27.51,25a10.55,10.55,0,0,1-1.16-1.67,1.48,1.48,0,0,1-.22-.8c0-.43,0-.87-.05-1.3a2.42,2.42,0,0,0-.08-.71c0-.08-.09-.34-.11-.43a.84.84,0,0,1,0-.21A10,10,0,0,0,26.4,20.84ZM29,12.55a5.41,5.41,0,0,1-1,.79c-.33.17-.65.31-.87.2S27,13,27,13a.66.66,0,0,1,0-.14c.16-.08.39,0,.46-.23a4.34,4.34,0,0,0,.08-.52c.07-.15.27-.22.32-.38-.27.17-.49.44-.82.42-.11,0,0-.16-.09-.22s-.07-.08-.08-.13h.05a0,0,0,0,0,0,0,0,0,0,0,0,0,0l-.09,0h0c0-.06,0-.13,0-.18l-.17,0c0-.18.13-.33.14-.52,0,0,.13,0,.08.1a.08.08,0,0,0,0,.1c0-.08.29-.19.13-.25s-.27,0-.28-.07a.71.71,0,0,1,.15-.41c.17.15.41.27.46.51.06.07.13.16.22.16s.29.12.48.1a.09.09,0,0,1,.06-.09s.09,0,.12,0a.23.23,0,0,1-.08.2.5.5,0,0,1-.24.09c.15.1.28-.07.43-.1a.15.15,0,0,1,.17.08c.06.36-.09.87.35,1.05C28.85,12.52,28.92,12.52,29,12.55Zm6.94,12.91c-.29,0-.54,0-.64.25s-.23.58-.34.77a1.21,1.21,0,0,1-.73.54c-.37.1-.89.13-1-.1.1-.45.72-.52,1-.65a1.09,1.09,0,0,0,.55-1.12c-.69-.44-2.08-1.55-2.08-1.55a18.08,18.08,0,0,0,1.86,1.64.74.74,0,0,1-.4.76c-.2.11-.42.19-.7.33-.47.27-.33.65-1,.89-.27.11-.92.2-.75-.16s0-.36,0-.36a4.79,4.79,0,0,1-.74.16c-.13,0-.25-.09-.15-.19a1.1,1.1,0,0,0,.17-.12.54.54,0,0,0,.2-.2c.07-.12.12-.28.05-.32a.26.26,0,0,0-.29,0c-.26.3-.28.79-1,.65,0,0-.9-.21-.17-1.22.2-.27-.36-.59-.69-1-.64-.77-2.45-3.7-2.45-3.7l-.55-.87c-.18-.26-.23-.83.16-.77.19,0,.25.12.46,0s.14.16,0,.28a.25.25,0,0,0,0,.35c.16.09.2-.09.37,0s.31.48.62.57c.09,0,.14,0,.16,0s-.1-.3-.07-.46a.9.9,0,0,0,.37.29c.22.12.34.15.29,0s-.1-.35-.1-.35a.25.25,0,0,1,.22-.27.22.22,0,0,1,.17.12c.14.25.07.4.39.49a10.26,10.26,0,0,0,2.17,2.68,1.71,1.71,0,0,0,.42.24c-.1-.11-.27-.26-.35-.33a7.92,7.92,0,0,1-2.06-2.59c.36-.16.42-.51.53-.46s-.12.33-.09.47.1.2.33.2c-.41.41.64.76,1.42.74a4.5,4.5,0,0,0,1.36.6s.06.28.24.29a10.27,10.27,0,0,0,1,1.3C34.71,23.89,35.38,24.91,35.93,25.46Zm-4.55-.7c-1.25-1.34-2.5-3.37-2.67-3.44,0,0,1.55,2.36,1.83,2.76s.67.77.85,1.09A.32.32,0,0,0,31.38,24.76Zm-2.28-12c-.54.52.1,1.81-.27,2.34,0,.06-.08.13-.11.18a2.06,2.06,0,0,0-.71-.1c-.14,0-.32,0-.43,0a6.23,6.23,0,0,0-.77,0,.78.78,0,0,1,.11-.18.63.63,0,0,1-.58-.22.45.45,0,0,1-.06-.4c.07-.2.28-.38.36-.55a1.89,1.89,0,0,0,.2-.49.36.36,0,0,0,.3.29,1.38,1.38,0,0,0,.87-.24,1.2,1.2,0,0,1-.92.55,1.4,1.4,0,0,0,.81-.2,3.91,3.91,0,0,0,.89-.89A.86.86,0,0,1,29.1,12.77Zm-.6,1.82a.54.54,0,0,1-.55.3c-.45,0-.55-.24-.55-.24a.48.48,0,0,0,.55.41C28.5,15,28.5,14.59,28.5,14.59Zm10.75-3.15a3.4,3.4,0,0,0-1.13,2,8.56,8.56,0,0,0,0,2.72l.44,2.72L38.68,20l.06,1.4A9.23,9.23,0,0,1,32,30.66l-1.27.5A10.82,10.82,0,0,0,27.68,33a13.23,13.23,0,0,0-4.31-2.34,9.19,9.19,0,0,1-6.62-8.44,17.7,17.7,0,0,1,.1-2.91l.2-1.43.34-1.95a7.14,7.14,0,0,0-.21-3.32,3.34,3.34,0,0,0-.91-1.23L17.68,9.5l0,.05v0a2.88,2.88,0,0,0,.23.49l.11.2-.77,1a5.62,5.62,0,0,1,1,4l-.12.88-.42,2.52-.16,1.43-.05,1.32c-.16,3.23,2.29,7.36,6.81,8.71A15.21,15.21,0,0,1,27.68,32a14.62,14.62,0,0,1,3.39-1.77C36.3,28.72,37.88,24.69,38,22a18.42,18.42,0,0,0-.13-2.89l-.2-1.34-.28-1.66a8.84,8.84,0,0,1,0-3,1.42,1.42,0,0,0,.76-1l0-.08a4.33,4.33,0,0,0,.93-.89S39.17,11.31,39.25,11.44Zm1-3.93c-.37.83-.6,1.07-1.15,1.26,0,0-1.8.55-2.26.73a9,9,0,0,0-1.22.58c-1-.58-2.71-.14-3.14,0a8.67,8.67,0,0,0-2,1.09c-.09-.09-.2-.22-.3-.23a.5.5,0,0,1,.24.49c.08,0,.37-.24.57-.06s0,.39-.07.55c.22-.16.45-.3.68-.14s0,.48-.12.63c.2,0,.4-.18.53,0s-.07.31-.26.42c.19,0,.2.13.74.16l-.68.07c-.12,0-.26-.1-.5-.16-.62-.18-1-.37-1.24-.45a1.27,1.27,0,0,0-.71-.05c-.1,0-.1,0-.19.05.82-.29.58-1.28,1-1.88a2.53,2.53,0,0,1,2-1.06c1-.13,2.47-.27,2.91-.36a15.65,15.65,0,0,0,2-.59c.24-.12,1.32-.5,1.74-.65A10.65,10.65,0,0,1,40.24,7.51Zm0,1a2.79,2.79,0,0,1-1,1.26,6.4,6.4,0,0,1-2.17.57A2.69,2.69,0,0,1,36,10.23a1.61,1.61,0,0,1-.27-.12,17,17,0,0,1,3.51-1.25ZM27.68,9.58a1,1,0,0,0-.81.46c-.09-.08-.06-.23.05-.37S27.27,9.46,27.68,9.58Zm11.66.84a1.13,1.13,0,0,1-.36.43,5.12,5.12,0,0,1-3,.37c.78-.31.86-.57.91-.77a6.57,6.57,0,0,0,2.43-.51C39.38,9.91,39.41,10.28,39.34,10.42ZM35.16,10c.22.07.56.23.4.28a20.57,20.57,0,0,0-4.14,1.36.61.61,0,0,0-.23,0,.37.37,0,0,0-.11-.35.45.45,0,0,0-.51-.06,9.73,9.73,0,0,1,2-1.07,5.59,5.59,0,0,1,1.81-.31A2.14,2.14,0,0,1,35.16,10Zm-6.3.06a.32.32,0,0,1-.12.32c-.24.1-.38-.14-.58-.2A10.73,10.73,0,0,1,27,10.1a.92.92,0,0,1,.43-.34,1.89,1.89,0,0,1,1-.07A.63.63,0,0,1,28.86,10.06Zm.29.13a.16.16,0,0,1,0,.11.16.16,0,0,1-.19.08.26.26,0,0,1,.13-.26A.08.08,0,0,1,29.15,10.19Zm7.56.29c0,.17-.29.38-.48.49s-.53.19-.64.36a12.8,12.8,0,0,1-1.92.62c-.57.14-1,.26-1.59.36a.47.47,0,0,0-.36-.07c.15-.29.09-.49-.16-.56l2.77-1a7.26,7.26,0,0,1,1.58-.34A3.26,3.26,0,0,0,36.71,10.48Zm-8.45-.12a1.42,1.42,0,0,1,.59.55.42.42,0,0,1-.11.35.39.39,0,0,0-.19.19.29.29,0,0,0-.06-.22A.62.62,0,0,1,28.3,11a1.56,1.56,0,0,1-.87-.12.31.31,0,0,0-.08-.18c.09,0,.43,0,.61,0s.44,0,.49.07,0,0-.06,0h-.06a.24.24,0,0,0,.26.09.11.11,0,0,0,.05-.16c-.05-.1-.18-.12-.34-.14s-1,0-1,0a1.87,1.87,0,0,0-.42-.3c0-.06.06-.12.1-.1A7.46,7.46,0,0,0,28.26,10.36Zm1.1.05c0,.05,0,0,.07.09a.29.29,0,0,1-.15.24.26.26,0,0,1-.27,0l-.15-.06c0-.18.22-.27.36-.33S29.34,10.34,29.36,10.41ZM21,10.55c.81.14.77.86,1,1.17a4.48,4.48,0,0,1-1.49-.06A3.29,3.29,0,0,1,17.8,9.21,8.42,8.42,0,0,0,21,10.55ZM38.93,11a4.1,4.1,0,0,1-1.44,1.16,1.36,1.36,0,0,1-.93.05A1.62,1.62,0,0,1,36,12c-.3-.24-.28-.41-.28-.49s.11-.19.21-.16A5.21,5.21,0,0,0,38.93,11Zm-9.72-.15.11,0c.05.16-.13.21-.23.24S29,11,28.94,11s0-.11,0-.15a.09.09,0,0,1,0-.06A.23.23,0,0,0,29.21,10.88Zm-7.16,1a1.65,1.65,0,0,0,.54.61,3.63,3.63,0,0,1-.78.1,6.86,6.86,0,0,1-.86,0,3.22,3.22,0,0,1-1.74-1.18,4.91,4.91,0,0,0,1.52.49A5.29,5.29,0,0,0,22.05,11.84Zm2.18.58a.32.32,0,0,0,.15.29,2.18,2.18,0,0,0-.42,0,2.07,2.07,0,0,1-1.8-.93,2.29,2.29,0,0,1,.6.05A5.24,5.24,0,0,1,24.23,12.42Zm12.36,0a.79.79,0,0,1-.6.4.31.31,0,0,0-.36-.2,1,1,0,0,0-.3.06.26.26,0,0,0,0-.27.12.12,0,0,0-.08-.06.54.54,0,0,0-.27.09c-.11.07-.22,0-.3.09a.66.66,0,0,0-.36.31s-.08,0-.15,0-1.25.14-1.25.14a3.13,3.13,0,0,1-.92-.11s.32-.16.15-.44c0,0,1.6-.35,2.23-.52a9,9,0,0,0,1.19-.4c0,.15.1.4.35.6A2.09,2.09,0,0,0,36.59,12.38Zm1.34-.31a1.17,1.17,0,0,1-1.74.77,1,1,0,0,0,.53-.43A1.57,1.57,0,0,0,37.93,12.07Zm-14.07.75a.2.2,0,0,0-.08.28.39.39,0,0,0,.17.18.91.91,0,0,0-.22.22,3.22,3.22,0,0,0-.59-.28A1.87,1.87,0,0,0,22,12.9a1.75,1.75,0,0,0-.44.13,1.81,1.81,0,0,1-.77-.4,4.54,4.54,0,0,0,1.08,0,5.53,5.53,0,0,0,.8-.12A2.55,2.55,0,0,0,23.86,12.82Zm5.39,2.94c-.13,0-.05.06-.32.26a.77.77,0,0,1-.42.06.31.31,0,0,0,0-.36.44.44,0,0,0-.32-.25.87.87,0,0,1,.25.3.27.27,0,0,1-.08.3.78.78,0,0,0-.27.14.65.65,0,0,0-.33-.67.76.76,0,0,1,.21.75c-.05.13-.56.47-.72.35s0-.39-.13-.64c0,0,0-.1-.07-.09.07.24,0,.34,0,.59a.72.72,0,0,1-.38.07.44.44,0,0,1-.06-.37,1.75,1.75,0,0,1,.33-.61.47.47,0,0,0-.15.1.91.91,0,0,0-.32.66.31.31,0,0,0,.09.22c-.05,0-.28,0-.35-.15s.06-.52.21-.7a1,1,0,0,1,.31-.24,3.85,3.85,0,0,1,1.06-.13,1.75,1.75,0,0,1,.83.08A1.93,1.93,0,0,1,29.25,15.76ZM34,21.15c0,.2-.22.34-.42.37h-.07c0-.19,0-.55.17-.59A.25.25,0,0,1,34,21.15Zm-3.14-2.22A6.37,6.37,0,0,0,32,20.07a7.71,7.71,0,0,1-.93-1,26.54,26.54,0,0,0,2.82,1.77c-.18,0-.41-.06-.52.08s0,.38-.09.59a.22.22,0,0,1-.21.19.8.8,0,0,0-.58-.71,1.07,1.07,0,0,1,.31.51,5.29,5.29,0,0,1-1.32-.62,2.48,2.48,0,0,1-1.29-.21c-.33-.22.36-.25.08-.48-.12-.1-.27,0-.37-.15s.19-.33.08-.55-.21-.14-.33,0-.19.56-.54.48-.14-.4-.36-.57a.36.36,0,0,0-.46,0,.46.46,0,0,0-.12.36,5.22,5.22,0,0,1,0-2.58,3.34,3.34,0,0,0-.1,2.73,1,1,0,0,1-.33-.33,1.58,1.58,0,0,1-.19-.8c-.26.46.24,1.3,0,1.29s-.16-.33-.37-.44-.29.08-.38,0,.36-.41,0-.63c-.22-.12-.31.1-.49,0a.63.63,0,0,0-.4,0,10.88,10.88,0,0,1,.43-2.22.91.91,0,0,0,.72-.09c.23.43.68.08.88-.09s.2-.23.38-.31.41,0,.61-.05a.46.46,0,0,0,.26-.22,5.47,5.47,0,0,1,.72,1.4A7.86,7.86,0,0,0,30.83,18.93Zm-4.12-6.31a1.2,1.2,0,0,0-1.18.58,2.21,2.21,0,0,0-1.06.66,3.26,3.26,0,0,1-.62-.3.49.49,0,0,1,.27-.28c-.12-.07-.31-.17-.28-.3s.38-.1.72-.24c-.13-.06-.3-.17-.23-.36s.37-.17.62-.11a.29.29,0,0,1,0-.45,1,1,0,0,1,.46-.06c0-.17.13-.28.22-.42-.15,0-.23.22-.28.33-.45,0-.66.19-.55.47-.22,0-.44,0-.53.18a4.75,4.75,0,0,0-1.95-.6h-.2a1.15,1.15,0,0,1-.15-.32,1,1,0,0,0-.44-.72,14.53,14.53,0,0,1,2.89.72c-.66-.49-2.46-.73-3.55-1a8.24,8.24,0,0,1-2.62-1,1.39,1.39,0,0,1-.66-1,10.44,10.44,0,0,0,1.49.39c.39.08.7.13,1.25.25s1.26.33,1.26.33c1.16.33,2.46.11,3.6.5.52.2.49.82.57,1.3l.12.12C25.86,12,26.18,12.22,26.71,12.62Zm3.71,6.28a9.41,9.41,0,0,0,1.07,1.18,5,5,0,0,1-1.13-1,3.24,3.24,0,0,1-.78-1.64A5.59,5.59,0,0,0,30.42,18.9Zm-6-8.45A9,9,0,0,0,22.27,10a4.17,4.17,0,0,1-.62-.18c.22,0,.41.1.64.13a8.47,8.47,0,0,1,2.15.38,1.18,1.18,0,0,1,.62.87A1.75,1.75,0,0,0,24.43,10.45Z" fill="#094183"/><path d="M11.62,25.59h-.13l0,.13a3.11,3.11,0,0,1-.87,3.15l-.27.24.35-.07a4.06,4.06,0,0,1,1-.06,3.82,3.82,0,0,1,2,.58c0,.14-.53,2.66-.53,2.66a.52.52,0,0,0,0,.11.88.88,0,0,0,.17.45h0a2.77,2.77,0,0,0,1.38.68h0a7.89,7.89,0,0,0,6.25-1.23l1-.67.46-.29.55-.33a8.4,8.4,0,0,1,2.92-1.15A8.25,8.25,0,0,1,31.89,31a2.39,2.39,0,0,0,.21.13l1.36.89.85.54a8,8,0,0,0,6.37.92c.34-.12,1-.35,1.16-1v0l-.54-2.79.08-.06,0,0a4.58,4.58,0,0,1,3-.45l.37.08L44.45,29a3.08,3.08,0,0,1-.86-3.15l0-.13H43.5a11,11,0,0,0-3.62.54c-.54.2-1.35.52-1.59,1.25v0l0,2.14v.84A6.05,6.05,0,0,1,35,29.24L34.73,29l-1.27-.83a11.43,11.43,0,0,0-4.55-1.7,11.25,11.25,0,0,0-7.72,1.89L20,29.2a5.91,5.91,0,0,1-3.2,1.23c0-.16,0-2.83,0-2.83,0-.42-.34-.81-1-1.17A9.48,9.48,0,0,0,11.62,25.59Z" fill="#094183"/><path d="M15.54,28.67a2.19,2.19,0,0,0,1-.47c0,.14,0,2.16,0,2.23a3.28,3.28,0,0,1-2.2-.69l0,0a.46.46,0,0,1-.13-.26.23.23,0,0,1,0-.11,1.31,1.31,0,0,1,.89-.53l.28-.08Z" fill="#fff"/><path d="M38.55,28.32a2.89,2.89,0,0,0,1.17.53,3.13,3.13,0,0,1,1,.43.32.32,0,0,1,.14.24.44.44,0,0,1,0,.1,1.66,1.66,0,0,1-1,.67,5,5,0,0,1-1.33.19Z" fill="#fff"/><path d="M11.92,26.6a3.53,3.53,0,0,0-.08-.72,9.2,9.2,0,0,1,4,.88c.32.2.68.48.68.85v0c-.06.47-.54.62-1,.74l-.55.17c-.45.13-.91.26-1.11.73a4.79,4.79,0,0,0-2.7-.6A3.24,3.24,0,0,0,11.92,26.6Z" fill="#fff"/><path d="M40.36,28.74l0,0-.54-.16A2.15,2.15,0,0,1,38.63,28a.57.57,0,0,1-.08-.29.71.71,0,0,1,.05-.26,2.93,2.93,0,0,1,1.74-1l.18-.06A11.23,11.23,0,0,1,43.26,26a4.06,4.06,0,0,0-.07.76,3.13,3.13,0,0,0,.69,2,5.08,5.08,0,0,0-2.71.58C41.05,29,40.67,28.86,40.36,28.74Z" fill="#fff"/><path d="M19.82,29.67l1.84-1.19a10.62,10.62,0,0,1,7.15-1.67A11,11,0,0,1,33,28.31l1.19.74,1.21.79a5.54,5.54,0,0,0,4,.89,2.68,2.68,0,0,0,1.63-.79c0,.13.49,2.52.49,2.52-.07.34-.43.5-.73.63l-.07,0A7.81,7.81,0,0,1,34,32l-1.83-1.2a8.72,8.72,0,0,0-6.41-1.24A9.58,9.58,0,0,0,22.42,31l-1.69,1.1a7.67,7.67,0,0,1-5.45,1.15,3.07,3.07,0,0,1-1.61-.64.52.52,0,0,1-.15-.28s.44-2.19.5-2.5a3.3,3.3,0,0,0,2.38.87A5.71,5.71,0,0,0,19.82,29.67Z" fill="#fff"/><path d="M15.07,31.16l-.65-.1s0,.05,0,.05.06.05.06.08l-.18,1.22s0,.05-.07.05a.17.17,0,0,0,0,0,3.58,3.58,0,0,0,.43.08h0v-.06c-.05,0-.06,0-.06-.06v0s.07-.48.07-.49A1.77,1.77,0,0,0,15,32a.44.44,0,0,0,.57-.36C15.55,31.46,15.45,31.21,15.07,31.16Zm-.13.6-.26,0a2.52,2.52,0,0,0,.06-.35l.25,0a.28.28,0,0,1,.21.09l0,.12C15.2,31.75,15.12,31.79,14.94,31.76Zm1.39-.45a.64.64,0,0,0-.47.16.84.84,0,0,0-.23.57.69.69,0,0,0,.65.79.68.68,0,0,0,.47-.17.79.79,0,0,0,.24-.57.88.88,0,0,0-.2-.59A.61.61,0,0,0,16.33,31.31Zm.21,1.17a.31.31,0,0,1-.25.08c-.24,0-.36-.19-.35-.51a.52.52,0,0,1,.14-.4.32.32,0,0,1,.24-.08.36.36,0,0,1,.25.1.72.72,0,0,1,0,.81Zm1.3-.74c-.17,0-.32,0-.35-.11s0-.17.17-.2.35,0,.36.08v0s0,0,0,0a3.73,3.73,0,0,0,.15-.38l0-.06-.07,0-.05,0h-.07l-.08,0a.79.79,0,0,0-.34,0c-.39.08-.48.34-.44.54s.37.3.61.3.35,0,.37.12l0,.14c0,.06-.12.1-.25.13a.6.6,0,0,1-.36,0l0,0v0h0a3.18,3.18,0,0,0-.11.38h.06l0,0h.08l.09,0H18c.43-.09.58-.37.53-.6S18.1,31.74,17.84,31.74Zm1.74.24s-.46-1-.47-1a2.68,2.68,0,0,0,.3-.12c.06,0,.07,0,.09,0s.06,0,.06,0-.14-.33-.14-.33-.06,0-.06,0,0,.06-.06.08l-.86.39c-.06,0-.07,0-.09,0s-.05,0-.05,0a2.67,2.67,0,0,0,.14.34h0v0s0,0,.06-.07l.3-.14h0s.44,1,.44,1a0,0,0,0,1,0,0s0,0,0,0h0a.2.2,0,0,0,0,0,3.34,3.34,0,0,0,.38-.16h0l0,0C19.6,32,19.59,32,19.58,32Zm1.53-1.14v0s0,0-.06.07l-.53.35h0s-.17-.28-.19-.32l.29-.18c.05,0,.06,0,.08,0l.05,0a2,2,0,0,0-.17-.29s0,0,0,0v0s0,0-.06.07l-.29.19h0a2.64,2.64,0,0,0-.18-.3s.5-.3.5-.3.07,0,.08,0l.06,0s-.18-.29-.18-.29-.05,0-.05,0,0,.06-.05.1l-.82.52a.2.2,0,0,0,0,.06c.09,0,.1,0,.12,0l.67,1s0,0,0,.09a.12.12,0,0,0,0,.05s.86-.54.86-.54.07,0,.09,0l0,0a2.14,2.14,0,0,0-.17-.3Zm1.24-.67,0,0-.41-.24h0a.37.37,0,0,0,0-.5.43.43,0,0,0-.65-.08l-.58.37a.08.08,0,0,0,0,.06c.07,0,.08,0,.1,0l.67,1s0,.05,0,.07a.2.2,0,0,0,0,.06s.36-.22.36-.22h0l0,0c-.06,0-.07,0-.09,0l-.27-.41a1.32,1.32,0,0,0,.2-.12s.42.25.42.25l.07.05h0s0,0,0,0h0a.12.12,0,0,0,0,.05,3.13,3.13,0,0,0,.36-.22s0-.05,0-.05S22.44,30.23,22.35,30.17Zm-.75-.31-.27.17h0s-.16-.27-.18-.31l.26-.16c.12-.09.22-.08.28,0l0,.13A.27.27,0,0,1,21.6,29.86Zm3.51-1.23,0,0s0,.07,0,.07l0,.09a.33.33,0,0,1-.2.16.39.39,0,0,1-.28,0,.5.5,0,0,1-.24-.32.53.53,0,0,1,0-.43.36.36,0,0,1,.24-.18c.13,0,.28,0,.3.09h0v0h0a3.06,3.06,0,0,0,.1-.38v-.05l-.05,0,0,0h-.06l-.08,0a.61.61,0,0,0-.3,0,.7.7,0,0,0-.45.95.67.67,0,0,0,.86.51.61.61,0,0,0,.39-.28l0-.05h0a.07.07,0,0,0,0,0Zm1.51.06,0-.05s-.27-.38-.28-.38h0a.37.37,0,0,0,.24-.44c0-.26-.25-.39-.56-.35l-.68.1s0,.06,0,.06.07,0,.08.06l.17,1.22s0,.05,0,.07,0,.05,0,.05.42,0,.42,0h0v0c-.06,0-.07,0-.08-.06l-.07-.49a.93.93,0,0,0,.24,0h0s.27.4.27.4l.05.08h0s0,0,0,0a.06.06,0,0,0,0,0v0s.42,0,.42,0,0-.06,0-.06S26.67,28.77,26.62,28.69ZM26.24,28a.25.25,0,0,1-.17.08l-.32.05s0,0,0,0,0-.3,0-.34l.3,0c.15,0,.23,0,.25.14Zm1.65.59h-.64s0-.34,0-.37h.34c.06,0,.07,0,.08,0l0,0,0-.35H27.7s0,.05-.09.05h-.36l0-.35.58,0c.07,0,.07,0,.08,0H28l0-.34-.06,0s0,.05-.09.05h-1l0,.06c.1,0,.1,0,.1.07v1.24s0,.05-.08.05v.06h1c.06,0,.07,0,.08,0H28l0-.34-.06,0S28,28.59,27.89,28.59ZM29.16,28a3.56,3.56,0,0,0,.26-.31h0l0,0s0,0-.05,0l-.07,0-.07,0a1,1,0,0,0-.33-.11.47.47,0,0,0-.59.37c0,.3.25.4.48.49s.32.12.31.24l-.07.12a.39.39,0,0,1-.28,0,.49.49,0,0,1-.33-.15l0-.05v0l0,0s-.23.33-.23.33h0l0,0,.06,0,.07,0,.08.05.32.1a.7.7,0,0,0,.54-.1.4.4,0,0,0,.16-.28c.05-.34-.25-.45-.49-.54s-.3-.11-.29-.22l.05-.1a.25.25,0,0,1,.18,0,.43.43,0,0,1,.29.14l0,.05a.12.12,0,0,1,0,.05Zm1.38,1.25.05,0s-.14-.37-.14-.37H30.4a.25.25,0,0,0,0,.07l-.06.07a.31.31,0,0,1-.25,0,.43.43,0,0,1-.26-.57A.58.58,0,0,1,30,28a.34.34,0,0,1,.3,0,.3.3,0,0,1,.19.14l0,.1v0h0a3.84,3.84,0,0,0,.29-.27l0,0h-.11l-.05,0,0-.05a.65.65,0,0,0-.27-.15.7.7,0,0,0-.53.06.83.83,0,0,0-.36.5.7.7,0,0,0,.46.9.63.63,0,0,0,.47,0l.07,0Zm1.16.52.09-1.25v-.08s0,0,.06,0l0-.05-.43-.2a.14.14,0,0,0,0,.05s0,0,0,.05h0l-.06.07-.84.94s0,0-.06,0,0,.05,0,.05l.34.16h0l0-.05a.05.05,0,0,1,0-.05v0l0,0,.17-.19.44.2a2.3,2.3,0,0,0,0,.26v0h0l0,0a3.82,3.82,0,0,0,.36.17.08.08,0,0,0,0,0A.12.12,0,0,1,31.7,29.72Zm-.17-1.17c0,.11-.07.55-.07.57h0L31.16,29l.37-.44Zm1.54,2,.67-1.07s0,0,.06,0l0,0s-.41-.28-.41-.28a.11.11,0,0,0,0,0,.06.06,0,0,1,0,.05h0a3.19,3.19,0,0,1-.32.23l-.38.27v0a2.82,2.82,0,0,0,.07-.32c0-.2.08-.47.09-.5a.08.08,0,0,1,0,0l0,0s-.42-.28-.42-.28,0,0,0,0,0,.06,0,.08l-.67,1.08s0,0-.06,0,0,0,0,0a3.05,3.05,0,0,0,.32.22h0l0-.05a.15.15,0,0,1,0-.06s0,0,0,0l.52-.84a0,0,0,0,1,0,0c0,.16-.15.7-.15.7l-.08.41,0,0,.38-.26.59-.44,0,0c-.13.18-.51.8-.51.8s0,0-.07,0,0,0,0,0a3.15,3.15,0,0,0,.33.22s.05,0,.05,0S33.06,30.58,33.07,30.56Zm1.73.9s-.06,0-.11,0l-.51-.33.61-.91s0,0,.1,0,0,0,0,0a4.28,4.28,0,0,0-.38-.26s0,0,0,0,0,.08,0,.11l-.67,1s0,0-.09,0l0,0s.81.55.81.55.06.05.05.07,0,.05,0,.05a2.52,2.52,0,0,0,.22-.3Zm1-.7c.05,0,0,0,0,.06l-.06.06s-.87.91-.87.91,0,0-.06,0a.14.14,0,0,0,0,0,3.79,3.79,0,0,0,.34.18h0l0-.05a.09.09,0,0,1,0,0v0l0,0,.17-.18.43.21a2.6,2.6,0,0,0,0,.26v0h0l0,0a3.91,3.91,0,0,0,.35.18s0,0,0,0,0,0,0-.09l.13-1.21V31s0,0,.06,0,0-.05,0-.05a4.11,4.11,0,0,0-.42-.21A.07.07,0,0,0,35.8,30.76Zm.09.38c0,.11-.09.55-.09.56h0a2,2,0,0,0-.29-.15l.39-.43Zm1.55.2c.05,0,.06.05.05.09l-.2.8a.26.26,0,0,1-.35.21.29.29,0,0,1-.2-.13.35.35,0,0,1,0-.23l.2-.79s0-.05.06,0,0-.05,0-.05a3.86,3.86,0,0,0-.42-.12h0v.06c.07,0,.07.05.06.08l-.2.79a.51.51,0,0,0,.44.69.61.61,0,0,0,.47,0,.55.55,0,0,0,.24-.37l.2-.79s0-.05.07,0a.17.17,0,0,0,0-.05,3.43,3.43,0,0,0-.39-.12A.15.15,0,0,0,37.44,31.34Zm1.11.07h-.61a.18.18,0,0,0,0,.06c.06,0,.07,0,.07.07v1.24s0,0-.05,0l0,.06h.57a.8.8,0,0,0,.56-.18.84.84,0,0,0,.19-.56A.66.66,0,0,0,38.55,31.41Zm.38.74c0,.36-.12.48-.49.48h-.16s0-.88,0-1h.15c.36,0,.48.12.48.48Zm1.76.11h0s0,.05-.08.07l-.62.16h0s-.07-.31-.08-.35l.33-.09c.06,0,.07,0,.08,0h.06a3.2,3.2,0,0,0-.07-.33H40.2s0,.05-.08.07l-.34.09h0s-.07-.33-.07-.33.57-.13.57-.13.07,0,.08,0h.06a2.9,2.9,0,0,0-.07-.34h-.06c0,.05,0,.06-.08.08l-.94.24a.11.11,0,0,0,0,.06c.1,0,.1,0,.11,0l.31,1.2s0,0-.06.07a.11.11,0,0,0,0,.06s1-.24,1-.24.08,0,.09,0h0A2.9,2.9,0,0,0,40.69,32.26Zm-17-2.73-.89-.83-.07-.09s0,0,0-.05,0,0,0,0a4.3,4.3,0,0,0-.43.21s0,.05,0,.05.07,0,.07,0l0,.08.19,1.24s0,.06,0,.07a.35.35,0,0,0,0,.06,2.85,2.85,0,0,0,.35-.17h0l0,0c-.05,0-.07,0-.08,0v0l-.05-.24.44-.22s.18.18.18.18l0,0h0l0,0h0a.12.12,0,0,0,0,.05l.35-.17s0-.06,0-.06S23.7,29.57,23.66,29.53ZM23,29.35l-.29.14s-.1-.52-.1-.57h0c.07.09.38.4.39.41Z" fill="#094183"/><path d="M19.92,16.69l-.54-.19.28.52-.51.37.58.13-.05.58.48-.4.45.4,0-.61.6,0-.5-.39.29-.53-.6.18-.22-.57Z" fill="#fff"/><path d="M23.41,17.59l-.54-.18.28.52-.52.36.6.13-.06.59.47-.4.46.4,0-.62.61-.05-.5-.38.28-.53-.59.16L23.64,17Z" fill="#fff"/><polygon points="19.5 20.59 19.72 21.15 20.32 20.98 20.03 21.5 20.53 21.89 19.93 21.94 19.95 22.56 19.51 22.15 19.03 22.56 19.08 21.97 18.5 21.84 19.01 21.48 18.74 20.97 19.28 21.15 19.5 20.59" fill="#fff"/><polygon points="23.63 20.85 23.8 21.36 24.34 21.36 23.9 21.7 24.07 22.23 23.63 21.91 23.19 22.23 23.34 21.7 22.91 21.37 23.43 21.36 23.63 20.85" fill="#fff"/><path d="M23.39,25l-.55-.19.28.52-.51.35.58.14,0,.59.47-.41.45.42,0-.61.61-.07-.5-.4.29-.51-.59.17-.22-.57Z" fill="#fff"/><path d="M22.34,14c-.17,0-.45.25-.53.34.35-.12.48-.06.57-.16S22.39,14,22.34,14Z" fill="#fff"/><path d="M22.56,14.08a.57.57,0,0,0,.29.55l0-.17A.61.61,0,0,0,22.56,14.08Z" fill="#fff"/><path d="M22.47,14.5c0,.07-.08.15-.06.22s.22.17.28.36A.45.45,0,0,0,22.47,14.5Z" fill="#fff"/><path d="M22.33,14.88l-.09.15c-.15.22.12.39.12.53a.56.56,0,0,0,.12-.47A.41.41,0,0,0,22.33,14.88Z" fill="#fff"/><path d="M21.79,14.91c-.1,0-.33.19-.45.17.06.08.32.06.41.07s.27-.17.35-.3Z" fill="#fff"/><path d="M22,15.3c-.31.07-.11.44-.38.66A.39.39,0,0,0,22,15.7.43.43,0,0,0,22,15.3Z" fill="#fff"/><path d="M19.58,14.59a.4.4,0,0,0,.12.45c-.06-.34.34-.48.16-.75A.49.49,0,0,0,19.58,14.59Z" fill="#fff"/><path d="M20.92,15.53c0,.07.32.05.46,0s.3-.1.32-.19C21.16,15.21,21.35,15.41,20.92,15.53Z" fill="#fff"/><path d="M21.57,14.74c0,.07.32,0,.44-.08s.28-.16.29-.25C21.74,14.38,22,14.55,21.57,14.74Z" fill="#fff"/><path d="M19.76,14c-.08,0-.3.08-.36.12s-.35.28-.3.34C19.47,14.22,19.49,14.5,19.76,14Z" fill="#fff"/><path d="M20.51,13.06c.19.06.27.17.4.19s.2,0,.23-.09S20.7,13,20.51,13.06Z" fill="#fff"/><path d="M21.38,13.9c0-.2.07-.31,0-.44s-.1-.17-.16-.18S21.25,13.74,21.38,13.9Z" fill="#fff"/><path d="M20.48,13.22a.71.71,0,0,0-.52.14c.21,0,.33.2.57.1l.16-.08A.37.37,0,0,0,20.48,13.22Z" fill="#fff"/><path d="M20.8,13.62a.67.67,0,0,0,.15.51c0-.2.19-.33.08-.57L21,13.41A.32.32,0,0,0,20.8,13.62Z" fill="#fff"/><path d="M21.58,15.69h-.17c-.26,0-.25.29-.44.38a.69.69,0,0,0,.52-.15A.34.34,0,0,0,21.58,15.69Z" fill="#fff"/><path d="M19.81,13.56c-.23.08-.25.16-.3.34.25-.23.59,0,.71-.29A.5.5,0,0,0,19.81,13.56Z" fill="#fff"/><path d="M20.36,14c0,.25.09.28.25.38-.16-.3.16-.56-.1-.76A.45.45,0,0,0,20.36,14Z" fill="#fff"/><path d="M20.07,14a1.1,1.1,0,0,0,.13.77.68.68,0,0,0,0-.57C20.2,14.12,20.14,14,20.07,14Z" fill="#fff"/></svg>